<svg xmlns="http://www.w3.org/2000/svg" viewBox="0 0 256 256" role="img" aria-label="HM monogram">
  <defs>
    <linearGradient id="metal" x1="0%" y1="0%" x2="100%" y2="100%">
      <stop offset="0%" stop-color="#d9dde2" />
      <stop offset="52%" stop-color="#babfc6" />
      <stop offset="100%" stop-color="#8e949d" />
    </linearGradient>
  </defs>
  <rect width="256" height="256" rx="64" fill="url(#metal)" />
  <rect x="20" y="20" width="216" height="216" rx="44" fill="none" stroke="rgba(255,255,255,.35)" />
  <g
    fill="none"
    stroke="#17191c"
    stroke-width="12"
    stroke-linecap="round"
    stroke-linejoin="round"
  >
    <g transform="translate(85 60)">
      <path d="M0 36V0M0 0l14 18L28 0M28 0v36" />
      <path d="M56 36L70 0L84 36" />
      <path d="M63 20h14" />
    </g>
    <g transform="translate(85 112)">
      <path d="M0 0v36h26" />
      <path d="M56 36L70 0L84 36" />
      <path d="M63 20h14" />
    </g>
    <g transform="translate(85 164)">
      <path d="M28 0H0v18h28v18H0" />
      <path d="M56 0v36M84 0v36M56 18h28" />
    </g>
  </g>
</svg>
